<svg xmlns="http://www.w3.org/2000/svg" width="32" height="24.889" viewBox="0 0 32 24.889">
  <path id="Path_794" data-name="Path 794" d="M15.222,8.333A5.333,5.333,0,1,1,9.889,3,5.333,5.333,0,0,1,15.222,8.333Zm14.222,0A5.333,5.333,0,1,1,24.111,3,5.333,5.333,0,0,1,29.444,8.333ZM22.209,27.889a12.74,12.74,0,0,0,.124-1.778,12.391,12.391,0,0,0-2.667-7.7A8.889,8.889,0,0,1,33,26.111v1.778ZM9.889,17.222a8.889,8.889,0,0,1,8.889,8.889v1.778H1V26.111a8.889,8.889,0,0,1,8.889-8.889Z" transform="translate(-1 -3)" fill="#42cb5d"/>
</svg>
