<svg xmlns="http://www.w3.org/2000/svg" width="27.541" height="34.838" viewBox="0 0 27.541 34.838">
  <path id="Path_778" data-name="Path 778" d="M12.3,6.649H8.649A3.649,3.649,0,0,0,5,10.3V32.189a3.649,3.649,0,0,0,3.649,3.649H26.892a3.649,3.649,0,0,0,3.649-3.649V10.3a3.649,3.649,0,0,0-3.649-3.649H23.243m-10.946,0A3.649,3.649,0,0,0,15.946,10.3h3.649a3.649,3.649,0,0,0,3.649-3.649m-10.946,0A3.649,3.649,0,0,1,15.946,3h3.649a3.649,3.649,0,0,1,3.649,3.649M17.77,19.419h5.473m-5.473,7.3h5.473M12.3,19.419h.018m-.018,7.3h.018" transform="translate(-4 -2)" fill="none" stroke="#bcbcbc" stroke-linecap="round" stroke-linejoin="round" stroke-width="2"/>
</svg>
