<svg xmlns="http://www.w3.org/2000/svg" width="44.532" height="43.32" viewBox="0 0 44.532 43.32">
  <g id="settings-icon-darkmode" transform="translate(2.926 -46.794) rotate(30)">
    <path id="Subtraction_9" data-name="Subtraction 9" d="M10.557,30.548a4.53,4.53,0,0,1-3.547-1.78,4.178,4.178,0,0,1-.654-3.75l.031-.11a4.32,4.32,0,0,0-3.107-5.38l-.161-.04A4.207,4.207,0,0,1-.153,15.3a4.207,4.207,0,0,1,3.274-4.19l.161-.04A4.319,4.319,0,0,0,6.388,5.689l-.031-.11A4.179,4.179,0,0,1,7.01,1.828,4.53,4.53,0,0,1,10.557.049,4.183,4.183,0,0,1,13.63,1.407a4.281,4.281,0,0,0,3.123,1.335,4.281,4.281,0,0,0,3.123-1.335A4.181,4.181,0,0,1,22.949.049a4.529,4.529,0,0,1,3.546,1.78,4.179,4.179,0,0,1,.654,3.751l-.031.11a4.317,4.317,0,0,0,3.107,5.379l.16.04a4.207,4.207,0,0,1,3.274,4.19,4.207,4.207,0,0,1-3.274,4.19l-.16.04a4.318,4.318,0,0,0-3.107,5.38l.031.109a4.179,4.179,0,0,1-.654,3.751,4.53,4.53,0,0,1-3.546,1.78,4.18,4.18,0,0,1-3.073-1.358,4.317,4.317,0,0,0-6.245,0A4.182,4.182,0,0,1,10.557,30.548Zm6.2-21.709A6.459,6.459,0,1,0,23.128,15.3,6.425,6.425,0,0,0,16.753,8.84Z" transform="translate(34.223 34.314)" fill="#7942cb"/>
  </g>
</svg>
