<svg xmlns="http://www.w3.org/2000/svg" width="49.784" height="50.785" viewBox="0 0 49.784 50.785">
  <g id="edit-icon" transform="translate(-28.5 -20.716)">
    <path id="Subtraction_8" data-name="Subtraction 8" d="M-4291-6850.913h-33a5.006,5.006,0,0,1-5-5v-33a5,5,0,0,1,5-5h27.928l-16.783,16.784a5.959,5.959,0,0,0-1.754,4.243,5.961,5.961,0,0,0,1.754,4.243l.707.707a5.964,5.964,0,0,0,4.242,1.758,5.967,5.967,0,0,0,4.244-1.758L-4286-6885.6v29.687A5.007,5.007,0,0,1-4291-6850.913Z" transform="translate(4357.5 6922.414)" fill="#bcbcbc"/>
    <line id="Line_38" data-name="Line 38" x1="35" transform="translate(50 49) rotate(-45)" fill="none" stroke="#bcbcbc" stroke-linecap="round" stroke-width="5"/>
  </g>
</svg>
