<svg xmlns="http://www.w3.org/2000/svg" width="73.297" height="71.4" viewBox="0 0 73.297 71.4">
  <g id="settings-icon-green-outline" transform="translate(12.523 -47.511) rotate(30)">
    <path id="Subtraction_9" data-name="Subtraction 9" d="M-4259-6947.2a6.534,6.534,0,0,1-4.77-2.088l-.141-.146a6.684,6.684,0,0,0-4.844-2.054,6.682,6.682,0,0,0-4.843,2.054l-.14.146a6.536,6.536,0,0,1-4.77,2.088,6.9,6.9,0,0,1-3.1-.75,7.04,7.04,0,0,1-2.443-2.037,6.524,6.524,0,0,1-1.009-5.869l.018-.06a6.683,6.683,0,0,0-.634-5.249,6.687,6.687,0,0,0-4.229-3.178,6.625,6.625,0,0,1-3.847-2.519,6.886,6.886,0,0,1-1.282-4.027,6.885,6.885,0,0,1,1.282-4.026,6.625,6.625,0,0,1,3.847-2.519,6.683,6.683,0,0,0,4.229-3.176,6.678,6.678,0,0,0,.634-5.248l-.018-.062a6.52,6.52,0,0,1,1.008-5.867,7.033,7.033,0,0,1,2.444-2.038,6.9,6.9,0,0,1,3.1-.75,6.533,6.533,0,0,1,4.77,2.089l.14.144a6.683,6.683,0,0,0,4.843,2.053,6.683,6.683,0,0,0,4.844-2.053l.141-.144a6.533,6.533,0,0,1,4.77-2.089,6.9,6.9,0,0,1,3.1.75,7.04,7.04,0,0,1,2.443,2.038,6.522,6.522,0,0,1,1.006,5.867l-.018.062a6.684,6.684,0,0,0,.637,5.249,6.681,6.681,0,0,0,4.227,3.175,6.629,6.629,0,0,1,3.848,2.519,6.883,6.883,0,0,1,1.282,4.026,6.879,6.879,0,0,1-1.283,4.026,6.623,6.623,0,0,1-3.847,2.519,6.685,6.685,0,0,0-4.227,3.176,6.687,6.687,0,0,0-.637,5.25l.018.06a6.522,6.522,0,0,1-1.007,5.868,7.04,7.04,0,0,1-2.443,2.038A6.9,6.9,0,0,1-4259-6947.2Zm-9.753-33.686a10.011,10.011,0,0,0-10,10,10.011,10.011,0,0,0,10,10,10.011,10.011,0,0,0,10-10A10.011,10.011,0,0,0-4268.75-6980.881Z" transform="translate(4331.25 7030.882)" fill="none" stroke="#42cb5d" stroke-width="3"/>
  </g>
</svg>
