<svg xmlns="http://www.w3.org/2000/svg" width="69.199" height="67.302" viewBox="0 0 69.199 67.302">
  <g id="settings-icon-green-fill" transform="translate(10.474 -49.561) rotate(30)">
    <g id="Subtraction_9" data-name="Subtraction 9" transform="translate(4331.25 7030.882)" fill="#42cb5d">
      <path d="M -4258.99658203125 -6948.6953125 C -4260.37890625 -6948.6953125 -4261.65576171875 -6949.25927734375 -4262.6884765625 -6950.326171875 L -4262.828125 -6950.47119140625 C -4264.39453125 -6952.0908203125 -4266.49755859375 -6952.982421875 -4268.75048828125 -6952.982421875 C -4271.0029296875 -6952.982421875 -4273.10595703125 -6952.0908203125 -4274.671875 -6950.4716796875 L -4274.814453125 -6950.32373046875 C -4275.8447265625 -6949.25927734375 -4277.12158203125 -6948.6953125 -4278.50341796875 -6948.6953125 C -4279.32568359375 -6948.6953125 -4280.16259765625 -6948.89892578125 -4280.923828125 -6949.28369140625 C -4281.6826171875 -6949.66748046875 -4282.34716796875 -6950.220703125 -4282.8447265625 -6950.8828125 C -4283.81494140625 -6952.1748046875 -4284.087890625 -6953.7890625 -4283.61328125 -6955.4296875 L -4283.5966796875 -6955.48583984375 L -4283.595703125 -6955.4892578125 L -4283.5947265625 -6955.4921875 C -4282.96240234375 -6957.66748046875 -4283.23779296875 -6959.9462890625 -4284.36962890625 -6961.90869140625 C -4285.50244140625 -6963.8720703125 -4287.33837890625 -6965.25146484375 -4289.5390625 -6965.79345703125 C -4290.79638671875 -6966.1025390625 -4291.8310546875 -6966.77490234375 -4292.5322265625 -6967.73828125 C -4293.173828125 -6968.6201171875 -4293.52734375 -6969.7373046875 -4293.52734375 -6970.88232421875 C -4293.52734375 -6972.02734375 -4293.173828125 -6973.14404296875 -4292.5322265625 -6974.0263671875 C -4291.8310546875 -6974.9892578125 -4290.79638671875 -6975.66162109375 -4289.5400390625 -6975.970703125 C -4287.33837890625 -6976.51220703125 -4285.50244140625 -6977.89111328125 -4284.3701171875 -6979.85400390625 C -4283.23779296875 -6981.81640625 -4282.96240234375 -6984.09375 -4283.59375 -6986.26708984375 L -4283.6103515625 -6986.3251953125 L -4283.611328125 -6986.328125 L -4283.6123046875 -6986.33154296875 C -4284.08837890625 -6987.97119140625 -4283.81591796875 -6989.58642578125 -4282.84521484375 -6990.87890625 C -4282.3466796875 -6991.54248046875 -4281.6826171875 -6992.095703125 -4280.92431640625 -6992.47900390625 C -4280.16259765625 -6992.8642578125 -4279.32568359375 -6993.06787109375 -4278.50390625 -6993.06787109375 C -4277.12158203125 -6993.06787109375 -4275.8447265625 -6992.50341796875 -4274.81201171875 -6991.43603515625 L -4274.6689453125 -6991.2890625 C -4273.1064453125 -6989.67333984375 -4271.00341796875 -6988.78173828125 -4268.75048828125 -6988.78173828125 C -4266.49853515625 -6988.78173828125 -4264.396484375 -6989.67236328125 -4262.8310546875 -6991.28955078125 L -4262.69287109375 -6991.43115234375 L -4262.6904296875 -6991.43359375 L -4262.68798828125 -6991.43603515625 C -4261.6552734375 -6992.50341796875 -4260.37841796875 -6993.06787109375 -4258.99609375 -6993.06787109375 C -4258.17431640625 -6993.06787109375 -4257.33740234375 -6992.8642578125 -4256.57666015625 -6992.4794921875 C -4255.81787109375 -6992.095703125 -4255.15380859375 -6991.54248046875 -4254.6552734375 -6990.87939453125 C -4253.685546875 -6989.5869140625 -4253.41357421875 -6987.9716796875 -4253.89013671875 -6986.33154296875 L -4253.89111328125 -6986.32861328125 L -4253.89208984375 -6986.3251953125 L -4253.9091796875 -6986.265625 C -4254.53857421875 -6984.0908203125 -4254.26171875 -6981.8134765625 -4253.12939453125 -6979.8525390625 C -4251.9970703125 -6977.89013671875 -4250.16162109375 -6976.51171875 -4247.96240234375 -6975.970703125 C -4246.70556640625 -6975.6611328125 -4245.67041015625 -6974.98876953125 -4244.96923828125 -6974.025390625 C -4244.32763671875 -6973.1435546875 -4243.97412109375 -6972.02734375 -4243.97412109375 -6970.8818359375 C -4243.97412109375 -6969.73583984375 -4244.32763671875 -6968.61962890625 -4244.96923828125 -6967.73876953125 C -4245.67041015625 -6966.77490234375 -4246.705078125 -6966.1025390625 -4247.9619140625 -6965.79345703125 C -4250.16259765625 -6965.25146484375 -4251.99755859375 -6963.87255859375 -4253.1298828125 -6961.91064453125 C -4254.2626953125 -6959.94873046875 -4254.5390625 -6957.66943359375 -4253.908203125 -6955.4931640625 L -4253.90673828125 -6955.48974609375 L -4253.90576171875 -6955.48583984375 L -4253.88916015625 -6955.4296875 C -4253.4140625 -6953.78955078125 -4253.68603515625 -6952.17529296875 -4254.65625 -6950.88330078125 C -4255.154296875 -6950.220703125 -4255.818359375 -6949.66748046875 -4256.57666015625 -6949.2841796875 C -4257.337890625 -6948.89892578125 -4258.1748046875 -6948.6953125 -4258.99658203125 -6948.6953125 Z M -4268.75 -6982.38134765625 C -4275.0908203125 -6982.38134765625 -4280.24951171875 -6977.22265625 -4280.24951171875 -6970.8818359375 C -4280.24951171875 -6964.541015625 -4275.0908203125 -6959.38232421875 -4268.75 -6959.38232421875 C -4262.4091796875 -6959.38232421875 -4257.25048828125 -6964.541015625 -4257.25048828125 -6970.8818359375 C -4257.25048828125 -6977.22265625 -4262.4091796875 -6982.38134765625 -4268.75 -6982.38134765625 Z" stroke="none"/>
      <path d="M -4258.99658203125 -6950.1953125 C -4258.40869140625 -6950.1953125 -4257.80615234375 -6950.3427734375 -4257.25341796875 -6950.62255859375 C -4256.69921875 -6950.90283203125 -4256.2158203125 -6951.3046875 -4255.85546875 -6951.7841796875 C -4255.16650390625 -6952.70166015625 -4254.984375 -6953.81640625 -4255.3291015625 -6955.00830078125 L -4255.3486328125 -6955.0751953125 C -4256.09423828125 -6957.64794921875 -4255.767578125 -6960.341796875 -4254.4287109375 -6962.66015625 C -4253.09033203125 -6964.97900390625 -4250.921875 -6966.609375 -4248.3203125 -6967.25 C -4247.3984375 -6967.4765625 -4246.67919921875 -6967.93798828125 -4246.181640625 -6968.62158203125 C -4245.7255859375 -6969.248046875 -4245.47412109375 -6970.05078125 -4245.47412109375 -6970.8818359375 C -4245.47412109375 -6971.71240234375 -4245.7255859375 -6972.515625 -4246.181640625 -6973.142578125 C -4246.67919921875 -6973.82568359375 -4247.39892578125 -6974.287109375 -4248.3203125 -6974.51416015625 C -4250.92041015625 -6975.1533203125 -4253.08984375 -6976.783203125 -4254.4287109375 -6979.1025390625 C -4255.7666015625 -6981.41943359375 -4256.09375 -6984.10986328125 -4255.3505859375 -6986.6796875 L -4255.33056640625 -6986.75 C -4254.98388671875 -6987.943359375 -4255.16552734375 -6989.06005859375 -4255.8544921875 -6989.978515625 C -4256.21533203125 -6990.45849609375 -4256.69873046875 -6990.8603515625 -4257.25341796875 -6991.140625 C -4257.8056640625 -6991.42041015625 -4258.408203125 -6991.56787109375 -4258.99609375 -6991.56787109375 C -4259.9765625 -6991.56787109375 -4260.85595703125 -6991.17236328125 -4261.60986328125 -6990.39306640625 L -4261.75537109375 -6990.244140625 C -4263.60546875 -6988.333984375 -4266.08984375 -6987.28173828125 -4268.75048828125 -6987.28173828125 C -4271.41162109375 -6987.28173828125 -4273.89599609375 -6988.33447265625 -4275.74658203125 -6990.24560546875 L -4275.89013671875 -6990.39306640625 C -4276.64404296875 -6991.17236328125 -4277.5234375 -6991.56787109375 -4278.50390625 -6991.56787109375 C -4279.091796875 -6991.56787109375 -4279.6943359375 -6991.42041015625 -4280.24755859375 -6991.14013671875 C -4280.8017578125 -6990.8603515625 -4281.28466796875 -6990.45849609375 -4281.6455078125 -6989.97802734375 C -4282.3359375 -6989.05908203125 -4282.51806640625 -6987.9423828125 -4282.171875 -6986.74951171875 L -4282.16796875 -6986.7373046875 L -4282.15234375 -6986.681640625 C -4281.4072265625 -6984.11328125 -4281.7333984375 -6981.4228515625 -4283.07080078125 -6979.1044921875 C -4284.4091796875 -6976.7841796875 -4286.57958984375 -6975.154296875 -4289.181640625 -6974.51416015625 C -4290.10302734375 -6974.28759765625 -4290.822265625 -6973.826171875 -4291.31884765625 -6973.14404296875 C -4291.77587890625 -6972.51611328125 -4292.02734375 -6971.712890625 -4292.02734375 -6970.88232421875 C -4292.02734375 -6970.0517578125 -4291.77587890625 -6969.248046875 -4291.31982421875 -6968.62109375 C -4290.822265625 -6967.93798828125 -4290.10302734375 -6967.4765625 -4289.1806640625 -6967.25 C -4286.57958984375 -6966.609375 -4284.40966796875 -6964.978515625 -4283.0703125 -6962.658203125 C -4281.732421875 -6960.33837890625 -4281.4072265625 -6957.64501953125 -4282.154296875 -6955.0732421875 L -4282.17333984375 -6955.009765625 C -4282.517578125 -6953.8173828125 -4282.3349609375 -6952.70166015625 -4281.6455078125 -6951.78369140625 C -4281.28515625 -6951.30419921875 -4280.8017578125 -6950.90234375 -4280.2470703125 -6950.6220703125 C -4279.69482421875 -6950.3427734375 -4279.091796875 -6950.1953125 -4278.50341796875 -6950.1953125 C -4277.52490234375 -6950.1953125 -4276.64697265625 -6950.5888671875 -4275.89306640625 -6951.36572265625 L -4275.75 -6951.51416015625 C -4273.89892578125 -6953.42822265625 -4271.4130859375 -6954.482421875 -4268.75048828125 -6954.482421875 C -4266.08740234375 -6954.482421875 -4263.6015625 -6953.42822265625 -4261.74951171875 -6951.513671875 L -4261.6103515625 -6951.36962890625 C -4260.8564453125 -6950.59033203125 -4259.97705078125 -6950.1953125 -4258.99658203125 -6950.1953125 M -4268.75 -6983.88134765625 C -4261.58203125 -6983.88134765625 -4255.75048828125 -6978.0498046875 -4255.75048828125 -6970.8818359375 C -4255.75048828125 -6963.7138671875 -4261.58203125 -6957.88232421875 -4268.75 -6957.88232421875 C -4275.91796875 -6957.88232421875 -4281.74951171875 -6963.7138671875 -4281.74951171875 -6970.8818359375 C -4281.74951171875 -6978.0498046875 -4275.91796875 -6983.88134765625 -4268.75 -6983.88134765625 M -4258.99658203125 -6947.1953125 C -4260.79443359375 -6947.1953125 -4262.44384765625 -6947.9169921875 -4263.76611328125 -6949.283203125 L -4263.90673828125 -6949.4287109375 C -4265.1875 -6950.7529296875 -4266.90771484375 -6951.482421875 -4268.75048828125 -6951.482421875 C -4270.59326171875 -6951.482421875 -4272.31298828125 -6950.7529296875 -4273.59375 -6949.4287109375 L -4273.73388671875 -6949.283203125 C -4275.056640625 -6947.9169921875 -4276.7060546875 -6947.1953125 -4278.50341796875 -6947.1953125 C -4279.560546875 -6947.1953125 -4280.630859375 -6947.45458984375 -4281.6005859375 -6947.94482421875 C -4282.56396484375 -6948.43212890625 -4283.40869140625 -6949.13623046875 -4284.0439453125 -6949.98193359375 C -4285.30517578125 -6951.6611328125 -4285.66357421875 -6953.7451171875 -4285.052734375 -6955.85107421875 L -4285.03515625 -6955.91064453125 C -4284.51806640625 -6957.68994140625 -4284.7431640625 -6959.55419921875 -4285.6689453125 -6961.1591796875 C -4286.595703125 -6962.76513671875 -4288.09765625 -6963.8935546875 -4289.89794921875 -6964.3369140625 C -4291.5029296875 -6964.7314453125 -4292.8330078125 -6965.6025390625 -4293.7451171875 -6966.85546875 C -4294.57177734375 -6967.9921875 -4295.02734375 -6969.42236328125 -4295.02734375 -6970.88232421875 C -4295.02734375 -6972.34228515625 -4294.57177734375 -6973.77197265625 -4293.7451171875 -6974.90869140625 C -4292.8330078125 -6976.16162109375 -4291.5029296875 -6977.03271484375 -4289.89794921875 -6977.42724609375 C -4288.09765625 -6977.8701171875 -4286.595703125 -6978.998046875 -4285.66943359375 -6980.603515625 C -4284.7431640625 -6982.208984375 -4284.517578125 -6984.0732421875 -4285.03515625 -6985.8515625 L -4285.052734375 -6985.9130859375 C -4285.66357421875 -6988.01708984375 -4285.3056640625 -6990.1005859375 -4284.04443359375 -6991.77978515625 C -4283.40869140625 -6992.62646484375 -4282.56396484375 -6993.3310546875 -4281.6005859375 -6993.81787109375 C -4280.63037109375 -6994.30859375 -4279.5595703125 -6994.56787109375 -4278.50390625 -6994.56787109375 C -4276.70556640625 -6994.56787109375 -4275.05615234375 -6993.845703125 -4273.73388671875 -6992.47900390625 L -4273.59375 -6992.3349609375 C -4272.3134765625 -6991.01123046875 -4270.59326171875 -6990.28173828125 -4268.75048828125 -6990.28173828125 C -4266.9072265625 -6990.28173828125 -4265.18701171875 -6991.01123046875 -4263.90673828125 -6992.3349609375 L -4263.76611328125 -6992.47900390625 C -4262.44384765625 -6993.845703125 -4260.79443359375 -6994.56787109375 -4258.99609375 -6994.56787109375 C -4257.9404296875 -6994.56787109375 -4256.86962890625 -6994.30859375 -4255.8994140625 -6993.81787109375 C -4254.9365234375 -6993.3310546875 -4254.091796875 -6992.62646484375 -4253.4560546875 -6991.7802734375 C -4252.19580078125 -6990.10107421875 -4251.83837890625 -6988.01708984375 -4252.44970703125 -6985.9130859375 L -4252.46728515625 -6985.8515625 C -4252.9833984375 -6984.07177734375 -4252.75732421875 -6982.20751953125 -4251.83056640625 -6980.6025390625 C -4250.90380859375 -6978.9970703125 -4249.40283203125 -6977.86962890625 -4247.60400390625 -6977.42724609375 C -4245.9990234375 -6977.0322265625 -4244.66845703125 -6976.1611328125 -4243.75634765625 -6974.908203125 C -4242.9296875 -6973.77197265625 -4242.47412109375 -6972.34228515625 -4242.47412109375 -6970.8818359375 C -4242.47412109375 -6969.42138671875 -4242.9296875 -6967.9912109375 -4243.7568359375 -6966.85546875 C -4244.66845703125 -6965.6025390625 -4245.9990234375 -6964.7314453125 -4247.60400390625 -6964.3369140625 C -4249.4033203125 -6963.8935546875 -4250.904296875 -6962.765625 -4251.83056640625 -6961.16064453125 C -4252.75732421875 -6959.5556640625 -4252.9833984375 -6957.69091796875 -4252.46728515625 -6955.91064453125 L -4252.44970703125 -6955.85107421875 C -4251.83837890625 -6953.74609375 -4252.19580078125 -6951.662109375 -4253.45654296875 -6949.98291015625 C -4254.09228515625 -6949.13671875 -4254.93701171875 -6948.43212890625 -4255.89990234375 -6947.9453125 C -4256.8701171875 -6947.45458984375 -4257.94091796875 -6947.1953125 -4258.99658203125 -6947.1953125 Z M -4268.75 -6980.88134765625 C -4274.263671875 -6980.88134765625 -4278.74951171875 -6976.3955078125 -4278.74951171875 -6970.8818359375 C -4278.74951171875 -6965.3681640625 -4274.263671875 -6960.88232421875 -4268.75 -6960.88232421875 C -4263.236328125 -6960.88232421875 -4258.75048828125 -6965.3681640625 -4258.75048828125 -6970.8818359375 C -4258.75048828125 -6976.3955078125 -4263.236328125 -6980.88134765625 -4268.75 -6980.88134765625 Z" stroke="none" fill="#42cb5d"/>
    </g>
  </g>
</svg>
