<svg xmlns="http://www.w3.org/2000/svg" width="60" height="70" viewBox="0 0 60 70">
  <path id="wishlist-icon-focused" d="M-4281-6368h-44a4,4,0,0,1-4-4v-62a4,4,0,0,1,4-4h52a4,4,0,0,1,4,4v54a11.921,11.921,0,0,1-3.516,8.485A11.92,11.92,0,0,1-4281-6368Zm-35.5-22a1.5,1.5,0,0,0-1.5,1.5,1.5,1.5,0,0,0,1.5,1.5h30a1.5,1.5,0,0,0,1.5-1.5,1.5,1.5,0,0,0-1.5-1.5Zm0-14a1.5,1.5,0,0,0-1.5,1.5,1.5,1.5,0,0,0,1.5,1.5h30a1.5,1.5,0,0,0,1.5-1.5,1.5,1.5,0,0,0-1.5-1.5Zm0-15a1.5,1.5,0,0,0-1.5,1.5,1.5,1.5,0,0,0,1.5,1.5h36a1.5,1.5,0,0,0,1.5-1.5,1.5,1.5,0,0,0-1.5-1.5Z" transform="translate(4329 6438)" fill="#42cb5d"/>
</svg>
